<svg width="26" height="30" viewBox="0 0 26 30" fill="none" xmlns="http://www.w3.org/2000/svg">
<path d="M12.9854 0.420013C11.0646 0.420013 9.27191 0.868703 7.63927 1.63789C6.90298 0.900752 5.87858 0.420013 4.72612 0.420013C2.48524 0.420013 0.660522 2.24682 0.660522 4.49027V12.7269V24.9698C0.660522 27.2132 2.48524 29.04 4.72612 29.04C6.96701 29.04 8.79173 27.2132 8.79173 24.9698V12.7269C8.79173 10.4194 10.6485 8.56053 12.9534 8.56053C15.2583 8.56053 17.115 10.4194 17.115 12.7269V24.9698C17.115 27.2132 18.9397 29.04 21.1806 29.04C23.4215 29.04 25.2462 27.2132 25.2462 24.9698V12.7269C25.3102 5.96454 19.8041 0.420013 12.9854 0.420013Z" fill="white"/>
<path d="M12.9854 0.420013C11.0646 0.420013 9.27191 0.868703 7.63927 1.63789C6.90298 0.900752 5.87858 0.420013 4.72612 0.420013C2.48524 0.420013 0.660522 2.24682 0.660522 4.49027V12.7269V24.9698C0.660522 27.2132 2.48524 29.04 4.72612 29.04C6.96701 29.04 8.79173 27.2132 8.79173 24.9698V12.7269C8.79173 10.4194 10.6485 8.56053 12.9534 8.56053C15.2583 8.56053 17.115 10.4194 17.115 12.7269V24.9698C17.115 27.2132 18.9397 29.04 21.1806 29.04C23.4215 29.04 25.2462 27.2132 25.2462 24.9698V12.7269C25.3102 5.96454 19.8041 0.420013 12.9854 0.420013Z" fill="url(#paint0_radial_88_3201)"/>
<defs>
<radialGradient id="paint0_radial_88_3201" cx="0" cy="0" r="1" gradientUnits="userSpaceOnUse" gradientTransform="translate(31.0779 38.8549) scale(21.2461 38.659)">
<stop offset="0.0251202" stop-color="white"/>
<stop offset="0.9966" stop-color="white" stop-opacity="0"/>
</radialGradient>
</defs>
</svg>
